<?xml version="1.0" encoding="iso-8859-1"?>

<svg fill="#000000" height="800px" width="800px" version="1.1" id="Layer_1" xmlns="http://www.w3.org/2000/svg" xmlns:xlink="http://www.w3.org/1999/xlink" 
	 viewBox="0 0 491.526 491.526" xml:space="preserve">
<g>
	<g>
		<path d="M366.623,143.366l82.299-127.57c2.43-3.76,2.13-8.66-0.73-12.1c-2.87-3.45-7.64-4.63-11.78-2.92l-286.72,118.34
			c-3.54,1.47-5.97,4.78-6.29,8.6c-0.33,3.81,1.5,7.49,4.74,9.53l9.716,6.12H0.003v348.16h491.52v-348.16H366.623z M413.973,32.196
			l-110.19,170.81l-31.149-17.846l57.049-68.604c3.04-3.65,3.17-8.9,0.32-12.69c-2.84-3.81-7.93-5.17-12.27-3.25l-112.049,48.675
			l-29.851-18.805L413.973,32.196z M215.043,222.386v-54.83l71.39-31.01L215.043,222.386z M190.373,163.846l4.19,2.639v84.231
			c0,4.31,2.7,8.16,6.76,9.63c1.14,0.41,2.31,0.61,3.48,0.61c2.98,0,5.89-1.31,7.87-3.69l46.663-56.114l42.698,24.454
			c1.6,0.91,3.35,1.35,5.08,1.35c3.37,0,6.66-1.66,8.61-4.69l37.689-58.42h99.269l-206.917,163.95L38.845,163.846H190.373z
			 M20.483,175.434l148.233,117.44L20.483,454.918V175.434z M33.491,471.046l151.321-165.419l60.951,48.289l60.951-48.289
			l151.321,165.419H33.491z M471.043,454.918L322.81,292.874l148.233-117.44V454.918z"/>
	</g>
</g>
</svg>